<svg xmlns="http://www.w3.org/2000/svg" xmlns:xlink="http://www.w3.org/1999/xlink" id="Layer_1" x="0" y="0" enable-background="new 0 0 423.9 400" version="1.1" viewBox="0 0 423.9 400" xml:space="preserve"><switch><g><path fill="none" stroke="#72166B" stroke-width="8" d="M202.9,221.1c-31.7,54.8-12.8,125.2,42,156.8 c54.8,31.7,125.2,12.8,156.8-42s12.8-125.2-42-156.8C304.9,147.4,234.5,166.3,202.9,221.1z"/><g><path id="XMLID_120_" fill="#92D050" fill-rule="evenodd" d="M171,98.3h6.1v6.5H171c-1.1,0-2-0.9-2-2v-2.4 C168.9,99.2,169.9,98.3,171,98.3" clip-rule="evenodd"/><path id="XMLID_119_" fill="#92D050" fill-rule="evenodd" d="M171,118.1h6.1v6.5H171c-1.1,0-2-0.9-2-2v-2.4 C168.9,119,169.9,118.1,171,118.1" clip-rule="evenodd"/><path id="XMLID_118_" fill="#92D050" fill-rule="evenodd" d="M171,138.2h6.1v6.5H171c-1.1,0-2-0.9-2-2v-2.4 C168.9,139.2,169.9,138.2,171,138.2" clip-rule="evenodd"/><path id="XMLID_117_" fill="#92D050" fill-rule="evenodd" d="M254.9,98.3h-6.1v6.5h6.1c1.1,0,2-0.9,2-2v-2.4 C256.9,99.2,256,98.3,254.9,98.3" clip-rule="evenodd"/><path id="XMLID_116_" fill="#92D050" fill-rule="evenodd" d="M254.9,118.1h-6.1v6.5h6.1c1.1,0,2-0.9,2-2 v-2.4C256.9,119,256,118.1,254.9,118.1" clip-rule="evenodd"/><path id="XMLID_115_" fill="#92D050" fill-rule="evenodd" d="M254.9,138.2h-6.1v6.5h6.1c1.1,0,2-0.9,2-2 v-2.4C256.9,139.2,256,138.2,254.9,138.2" clip-rule="evenodd"/><path id="XMLID_114_" fill="#92D050" fill-rule="evenodd" d="M236.2,79.6v6.1h-6.5v-6.1c0-1.1,0.9-2,2-2h2.4 C235.3,77.5,236.2,78.4,236.2,79.6" clip-rule="evenodd"/><path id="XMLID_113_" fill="#92D050" fill-rule="evenodd" d="M216.4,79.6v6.1h-6.5v-6.1c0-1.1,0.9-2,2-2h2.4 C215.4,77.5,216.4,78.4,216.4,79.6" clip-rule="evenodd"/><path id="XMLID_112_" fill="#92D050" fill-rule="evenodd" d="M196.2,79.6v6.1h-6.5v-6.1c0-1.1,0.9-2,2-2h2.4 C195.3,77.5,196.2,78.4,196.2,79.6" clip-rule="evenodd"/><path id="XMLID_111_" fill="#92D050" fill-rule="evenodd" d="M236.2,163.5v-6.1h-6.5v6.1c0,1.1,0.9,2,2,2 h2.4C235.3,165.5,236.2,164.6,236.2,163.5" clip-rule="evenodd"/><path id="XMLID_110_" fill="#92D050" fill-rule="evenodd" d="M216.4,163.5v-6.1h-6.5v6.1c0,1.1,0.9,2,2,2 h2.4C215.4,165.5,216.4,164.6,216.4,163.5" clip-rule="evenodd"/><path id="XMLID_109_" fill="#92D050" fill-rule="evenodd" d="M196.2,163.5v-6.1h-6.5v6.1c0,1.1,0.9,2,2,2 h2.4C195.3,165.5,196.2,164.6,196.2,163.5" clip-rule="evenodd"/><path id="XMLID_108_" fill="#92D050" fill-rule="evenodd" d="M254.9,98.3h-6.1v6.5h6.1c1.1,0,2-0.9,2-2v-2.4 C256.9,99.2,256,98.3,254.9,98.3" clip-rule="evenodd"/><path id="XMLID_89_" fill="#92D050" fill-rule="evenodd" d="M254.9,118.1h-6.1v6.5h6.1c1.1,0,2-0.9,2-2v-2.4 C256.9,119,256,118.1,254.9,118.1" clip-rule="evenodd"/><path id="XMLID_88_" fill="#92D050" fill-rule="evenodd" d="M254.9,138.2h-6.1v6.5h6.1c1.1,0,2-0.9,2-2v-2.4 C256.9,139.2,256,138.2,254.9,138.2" clip-rule="evenodd"/><path id="XMLID_87_" fill="#92D050" fill-rule="evenodd" d="M236.2,79.6v6.1h-6.5v-6.1c0-1.1,0.9-2,2-2h2.4 C235.3,77.5,236.2,78.4,236.2,79.6" clip-rule="evenodd"/><path id="XMLID_86_" fill="#92D050" fill-rule="evenodd" d="M254.9,98.3h-6.1v6.5h6.1c1.1,0,2-0.9,2-2v-2.4 C256.9,99.2,256,98.3,254.9,98.3" clip-rule="evenodd"/><path id="XMLID_85_" fill="#92D050" fill-rule="evenodd" d="M254.9,118.1h-6.1v6.5h6.1c1.1,0,2-0.9,2-2v-2.4 C256.9,119,256,118.1,254.9,118.1" clip-rule="evenodd"/><path id="XMLID_84_" fill="#92D050" fill-rule="evenodd" d="M254.9,138.2h-6.1v6.5h6.1c1.1,0,2-0.9,2-2v-2.4 C256.9,139.2,256,138.2,254.9,138.2" clip-rule="evenodd"/><path id="XMLID_83_" fill="#92D050" fill-rule="evenodd" d="M171,98.3h6.1v6.5H171c-1.1,0-2-0.9-2-2v-2.4 C168.9,99.2,169.9,98.3,171,98.3" clip-rule="evenodd"/><path id="XMLID_82_" fill="#92D050" fill-rule="evenodd" d="M216.4,79.6v6.1h-6.5v-6.1c0-1.1,0.9-2,2-2h2.4 C215.4,77.5,216.4,78.4,216.4,79.6" clip-rule="evenodd"/><path id="XMLID_81_" fill="#92D050" fill-rule="evenodd" d="M196.2,79.6v6.1h-6.5v-6.1c0-1.1,0.9-2,2-2h2.4 C195.3,77.5,196.2,78.4,196.2,79.6" clip-rule="evenodd"/><path id="XMLID_80_" fill="#92D050" fill-rule="evenodd" d="M236.2,79.6v6.1h-6.5v-6.1c0-1.1,0.9-2,2-2h2.4 C235.3,77.5,236.2,78.4,236.2,79.6" clip-rule="evenodd"/><path id="XMLID_79_" fill="#92D050" fill-rule="evenodd" d="M254.9,98.3h-6.1v6.5h6.1c1.1,0,2-0.9,2-2v-2.4 C256.9,99.2,256,98.3,254.9,98.3" clip-rule="evenodd"/><path id="XMLID_78_" fill="#92D050" fill-rule="evenodd" d="M254.9,118.1h-6.1v6.5h6.1c1.1,0,2-0.9,2-2v-2.4 C256.9,119,256,118.1,254.9,118.1" clip-rule="evenodd"/><path id="XMLID_77_" fill="#92D050" fill-rule="evenodd" d="M254.9,138.2h-6.1v6.5h6.1c1.1,0,2-0.9,2-2v-2.4 C256.9,139.2,256,138.2,254.9,138.2" clip-rule="evenodd"/><path fill="#92D050" fill-rule="evenodd" d="M190.6,93h44.8c3.4,0,6.1,2.8,6.1,6.1v44.8 c0,3.4-2.8,6.2-6.1,6.2h-44.8c-3.4,0-6.1-2.8-6.1-6.2V99.1C184.4,95.7,187.2,93,190.6,93 M193.6,98c-2.4,0-4.3,1.9-4.3,4.3 c0,2.4,1.9,4.3,4.3,4.3c2.4,0,4.3-1.9,4.3-4.3C197.9,99.9,196,98,193.6,98 M232.2,136.5c-2.4,0-4.3,1.9-4.3,4.3 c0,2.4,1.9,4.3,4.3,4.3s4.3-1.9,4.3-4.3C236.5,138.4,234.6,136.5,232.2,136.5" clip-rule="evenodd"/></g><path id="XMLID_133_" fill="none" stroke="#92D050" stroke-width="8" d="M212.9,236.3c63.3,0,114.8-51.5,114.8-114.8 c0-63.3-51.5-114.8-114.8-114.8S98.1,58.2,98.1,121.5C98.1,184.8,149.6,236.3,212.9,236.3z"/><path fill="none" stroke="#92D050" stroke-width="8" d="M212.9,236.3c63.3,0,114.8-51.5,114.8-114.8 c0-63.3-51.5-114.8-114.8-114.8S98.1,58.2,98.1,121.5C98.1,184.8,149.6,236.3,212.9,236.3z"/><path fill="none" stroke="#6687B7" stroke-width="8" d="M221.1,220c-31.7-54.8-102-73.7-156.8-42c-54.8,31.7-73.7,102-42,156.8 s102,73.7,156.8,42C233.9,345.2,252.7,274.8,221.1,220z"/><g><path id="XMLID_132_" fill="#6687B7" d="M121.6,288.2c7.3,0,14,3,18.8,7.8l11.6-11.6c-7.8-7.8-18.5-12.6-30.4-12.6 c-11.8,0-22.6,4.8-30.4,12.6l11.6,11.6C107.7,291.2,114.3,288.2,121.6,288.2"/><path id="XMLID_131_" fill="#6687B7" d="M121.6,299.3c-4.3,0-8.2,1.7-11,4.5l11,11l11-11C129.8,301.1,125.9,299.3,121.6,299.3"/><path id="XMLID_130_" fill="#6687B7" d="M121.6,260.4c15,0,28.5,6.1,38.4,15.9l14.5-14.5c-13.6-13.5-32.3-21.9-52.9-21.9 s-39.3,8.4-52.9,21.9l14.5,14.5C93.1,266.5,106.7,260.4,121.6,260.4"/></g><path fill="#72166B" d="M290.8,295.8l23-17.3l-23-17.2V295.8z M262.1,295.8h11.5v11.5h-11.5V295.8z M331.1,295.8h11.5v11.5h-11.5 V295.8z M262.1,272.8h11.5v11.5h-11.5V272.8z M331.1,272.8h11.5v11.5h-11.5V272.8z M262.1,249.8h11.5v11.5h-11.5V249.8z M279.3,249.8h46v57.5h-46V249.8z M331.1,249.8h11.5v11.5h-11.5V249.8z M256.3,313h92v-69h-92V313z"/><path fill="none" stroke="#92D050" stroke-width="8" d="M212.9,236.3c63.3,0,114.8-51.5,114.8-114.8 c0-63.3-51.5-114.8-114.8-114.8S98.1,58.2,98.1,121.5C98.1,184.8,149.6,236.3,212.9,236.3z"/><path fill="none" stroke="#72166B" stroke-width="8" d="M202.9,221.1c-31.7,54.8-12.8,125.2,42,156.8 c54.8,31.7,125.2,12.8,156.8-42s12.8-125.2-42-156.8C304.9,147.4,234.5,166.3,202.9,221.1z"/><path fill="none" stroke="#72166B" stroke-width="8" d="M202.9,221.1c-31.7,54.8-12.8,125.2,42,156.8 c54.8,31.7,125.2,12.8,156.8-42s12.8-125.2-42-156.8C304.9,147.4,234.5,166.3,202.9,221.1z"/><g><defs><circle id="SVGID_1_" cx="209.8" cy="348" r="20.6"/></defs><clipPath id="SVGID_2_"><use overflow="visible" xlink:href="#SVGID_1_"/></clipPath><path fill="none" stroke="#6687B7" stroke-width="8" d="M221.1,220c-31.7-54.8-102-73.7-156.8-42 c-54.8,31.7-73.7,102-42,156.8s102,73.7,156.8,42C233.9,345.2,252.7,274.8,221.1,220z" clip-path="url(#SVGID_2_)"/></g><circle cx="193.6" cy="236" r="20.6" fill="none"/><g><defs><circle id="SVGID_3_" cx="213.1" cy="204.6" r="20.6"/></defs><clipPath id="SVGID_4_"><use overflow="visible" xlink:href="#SVGID_3_"/></clipPath><path fill="none" stroke="#6687B7" stroke-width="8" d="M221.1,220c-31.7-54.8-102-73.7-156.8-42 c-54.8,31.7-73.7,102-42,156.8s102,73.7,156.8,42C233.9,345.2,252.7,274.8,221.1,220z" clip-path="url(#SVGID_4_)"/></g></g></switch></svg>